<?xml version="1.0" encoding="utf-8"?>
<svg width="20px" height="27px" viewBox="0 0 20 27" version="1.1" xmlns:xlink="http://www.w3.org/1999/xlink" xmlns="http://www.w3.org/2000/svg">
  <defs>
    <filter id="filter_1">
      <feColorMatrix in="SourceGraphic" type="matrix" values="0 0 0 0 1 0 0 0 0 1 0 0 0 0 1 0 0 0 1 0" />
    </filter>
  </defs>
  <g id="Group-11" transform="translate(0.5 0.5)">
    <g id="Group-7" transform="translate(0 1.5)">
      <g id="Group-6" filter="url(#filter_1)">
        <path d="M9.5 0C9.5 0 7.25 3.44589e-08 5.5 1.5C3.75 3 3.5 5.5 3.5 5.5L2.5 16.5L0 18.5L0 18.5L19 18.5L19 18.5L16.5 16.5L15.5 5.5C15.5 5.5 15.25 3 13.5 1.5C11.75 3.44589e-08 9.5 0 9.5 0Z" id="New-shape" fill="#FFFFFF" fill-rule="evenodd" stroke="#FFFFFF" stroke-width="1" />
      </g>
      <path d="M12.5 21.5C13.5439 21.4728 11 24.5 9.50001 24.5C8.00001 24.5 5.58495 21.4963 6.5 21.5C7.41506 21.5036 11.4561 21.5271 12.5 21.5Z" id="New-shape-3" fill="#FFFFFF" fill-rule="evenodd" stroke="#FFFFFF" stroke-width="1" />
    </g>
    <path d="M7.50138 2C7.43741 1.37476 8.50137 0 9.50137 0C10.5014 0 11.4761 1.19727 11.5014 2" id="New-shape-2" fill="#FFFFFF" fill-rule="evenodd" stroke="#FFFFFF" stroke-width="1" />
  </g>
</svg>